<?xml version="1.0"?>
<svg width="480" height="480" xmlns="http://www.w3.org/2000/svg" xmlns:svg="http://www.w3.org/2000/svg">
 <!-- Created with SVG-edit - http://svg-edit.googlecode.com/ -->
 <g class="layer">
  <title>Layer 1</title>
  <rect fill="#CD0000" height="10.729105" id="svg_5" stroke="#0000ff" stroke-dasharray="null" stroke-linecap="null" stroke-linejoin="null" stroke-width="0" transform="rotate(-70.8767 263.5 75.4515)" width="145.441382" x="42.779315" y="70.086905"/>
  <rect fill="#CD0000" height="10.729105" id="svg_7" stroke="#0000ff" stroke-dasharray="null" stroke-linecap="null" stroke-linejoin="null" stroke-width="0" transform="rotate(-70.8767 123.5 167.716)" width="145.441382" x="0.779307" y="163.351238"/>
  <rect fill="#CD0000" height="10.729105" id="svg_8" stroke="#0000ff" stroke-dasharray="null" stroke-linecap="null" stroke-linejoin="null" stroke-width="0" transform="rotate(-111.251 55.5 215.284)" width="145.441382" x="-17.220685" y="209.919635"/>
  <rect fill="#CD0000" height="10.729105" id="svg_9" stroke="#0000ff" stroke-dasharray="null" stroke-linecap="null" stroke-linejoin="null" stroke-width="0" transform="rotate(-70.7589 13.0457 183.766)" width="77.428022" x="-25.668355" y="178.400967"/>
  <rect fill="#CD0000" height="10.729105" id="svg_10" stroke="#0000ff" stroke-dasharray="null" stroke-linecap="null" stroke-linejoin="null" stroke-width="0" transform="rotate(-70.8767 289.5 309.149)" width="145.441382" x="315.779311" y="302.783986"/>
  <rect fill="#CD0000" height="10.729105" id="svg_14" stroke="#0000ff" stroke-dasharray="null" stroke-linecap="null" stroke-linejoin="null" stroke-width="0" transform="rotate(-111.251 161.5 215.284)" width="145.441382" x="88.779315" y="209.919641"/>
  <rect fill="#CD0000" height="10.729105" id="svg_15" stroke="#0000ff" stroke-dasharray="null" stroke-linecap="null" stroke-linejoin="null" stroke-width="0" transform="rotate(-111.251 267.5 215.284)" width="145.441382" x="194.779307" y="209.919643"/>
  <rect fill="#CD0000" height="10.729105" id="svg_16" stroke="#0000ff" stroke-dasharray="null" stroke-linecap="null" stroke-linejoin="null" stroke-width="0" transform="rotate(-111.251 369.5 215.284)" width="145.441382" x="296.779303" y="209.91963"/>
  <rect fill="#CD0000" height="10.729105" id="svg_17" stroke="#0000ff" stroke-dasharray="null" stroke-linecap="null" stroke-linejoin="null" stroke-width="0" transform="rotate(-70.8767 424.5 215.284)" width="145.441382" x="351.779326" y="209.919643"/>
  <rect fill="#CD0000" height="10.833234" id="svg_18" stroke="#0000ff" stroke-dasharray="null" stroke-linecap="null" stroke-linejoin="null" stroke-width="0" transform="rotate(-111.756 462.509 184.717)" width="80.657355" x="422.180162" y="179.300266"/>
 </g>
</svg>
