<svg width="640" height="480" xmlns="http://www.w3.org/2000/svg" xmlns:svg="http://www.w3.org/2000/svg">
 <!-- Created with SVG-edit - https://github.com/SVG-Edit/svgedit-->
 <g class="layer">
  <title>Layer 1</title>
  <path d="m134.97615,248.07336l75.70192,0c0,0 -39.10686,-85.93197 19.09599,-87.29599c53.86316,-1.26219 47.73996,87.97812 30.68997,87.97812c-17.04997,0 -16.36796,-87.29612 27.96196,-87.29612c44.32997,0 51.14996,87.29588 26.59796,87.29588c-24.55193,0 -15.00397,-87.29588 28.64401,-87.29588c43.64795,0 52.51394,87.29612 25.23398,87.29612c-27.27999,0 -12.27602,-87.29612 30.68994,-87.29612c42.96599,0 37.50997,87.29588 23.18799,87.29588c-14.32197,0 72.97396,-0.682 72.97396,-0.682m-369.38383,-4.52988l8.59134,0l0,8.59139l-8.59134,0l0,-8.59139zm369.40864,0.38198l8.59134,0l0,8.5914l-8.59134,0l0,-8.5914z" fill="#000000" id="svg_2" stroke="#000000" stroke-width="5"/>
 </g>
</svg>