<svg width="32" height="32" xmlns="http://www.w3.org/2000/svg" xmlns:svg="http://www.w3.org/2000/svg">
 <!-- Created with SVG-edit - http://svg-edit.googlecode.com/ -->
 <g>
  <title>Layer 1</title>
  <circle id="svg_2" r="16" cy="16" cx="16" stroke="#000000" fill="rgba(255,255,255,0)"/>
<!--  <circle id="svg_3" r="3" cy="16" cx="16" stroke="#ff0000" fill="rgba(255,255,255,0)"/>-->
  <path id="svg_1" fill="#000" d="m15.66096,16.09985l0.80163,0a7.21465,7.84987 0 0 0 -14.42931,0l0.80163,0a6.41302,6.97766 0 1 1 12.82605,0l0,0zm0,0l0.80163,0a7.21465,7.84987 0 0 0 -14.42931,0l0.80163,0a6.41302,6.97766 0 1 1 12.82605,0l0,0z"/>
  <path transform="rotate(177.6140899658203 23.09320068359375,19.149356842041012) " id="svg_4" fill="#000" d="m29.50623,23.07429l0.80162,0a7.21465,7.84987 0 0 0 -14.4293,0l0.80163,0a6.41302,6.97766 0 1 1 12.82605,0l0,0zm0,0l0.80162,0a7.21465,7.84987 0 0 0 -14.4293,0l0.80163,0a6.41302,6.97766 0 1 1 12.82605,0l0,0z"/>
 </g>
</svg>
