<svg width="20.8" height="45.6" xmlns="http://www.w3.org/2000/svg" xmlns:svg="http://www.w3.org/2000/svg">
 <!-- Created with SVG-edit - http://svg-edit.googlecode.com/ -->
 <g>
  <title>Layer 1</title>
<!--  <circle cx="10.4" cy="2.4" r="2.4" id="svg_1" stroke="#ff0000" fill="rgba(0,0,0,0)"/>-->
  <path id="svg_1" fill="#000" d="m25.05871,22.17182l1.21321,0a10.91888,11.34255 0 0 0 -21.83776,0l1.21321,0a9.70567,10.08226 0 1 1 19.41134,0zm0,0l1.21321,0a10.91888,11.34255 0 0 0 -21.83776,0l1.21321,0a9.70567,10.08226 0 1 1 19.41134,0z" transform="rotate(90.81378936767578 15.353038787841797,16.50331687927246) "/>
  <line id="svg_2" y2="6.4" x2="10.4" y1="2.4" x1="10.4" stroke="#000000" fill="none"/>
  <line id="svg_3" y2="16.8" x2="10.4" y1="16.8" x1="0" stroke="#000000" fill="none"/>
  <line id="svg_4" y2="36" x2="10.4" y1="16.8" x1="10.4" stroke="#000000" fill="none"/>
  <line id="svg_5" y2="36" x2="20.8" y1="36" x1="0" stroke="#000000" fill="none"/>
  <line id="svg_6" y2="40.8" x2="17.6" y1="40.8" x1="3.2" stroke="#000000" fill="none"/>
  <line id="svg_7" y2="45.6" x2="14.4" y1="45.6" x1="6.4" stroke="#000000" fill="none"/>
  <path fill="#000" d="m19.49173,27.19638l1.18355,0a10.65194,10.82581 0 0 0 -21.30388,0l1.18355,0a9.46839,9.62294 0 1 1 18.93678,0zm0,0l1.18355,0a10.65194,10.82581 0 0 0 -21.30388,0l1.18355,0a9.46839,9.62294 0 1 1 18.93678,0z" transform="rotate(-178.45619201660156 10.023340225219727,21.78534317016601) " id="svg_8"/>
 </g>
</svg>
