<svg width="33.6" height="20.8" xmlns="http://www.w3.org/2000/svg" xmlns:svg="http://www.w3.org/2000/svg" class="icon">
 <defs>
  <style type="text/css"/>
 </defs>
 <g>
  <title>Layer 1</title>
<!--  <circle cx="2.4" cy="10.4" r="2.4" id="svg_1" stroke="#ff0000" fill="rgba(0,0,0,0)"/>-->
<!--  <circle cx="31.2" cy="10.4" r="2.4" id="svg_2" stroke="#ff0000" fill="rgba(0,0,0,0)"/>-->
  <path d="m26.62541,10.69145l1.21702,0a10.95319,10.99598 0 0 0 -21.90638,0l1.21702,0a9.73617,9.77421 0 1 1 19.47234,0l0,0zm0,0l1.21702,0a10.95319,10.99598 0 0 0 -21.90638,0l1.21702,0a9.73617,9.77421 0 1 1 19.47234,0l0,0z" fill="#000" id="svg_3" transform="rotate(0.6106944680213928 16.8892402648927,5.1953558921814675) "/>
  <line fill="#000" stroke="#000000" x1="2.4" y1="10.4" x2="6.4" y2="10.4" id="svg_4"/>
  <line fill="#000" stroke="#000000" x1="16.8" y1="20.8" x2="16.8" y2="10.4" id="svg_5"/>
  <line fill="#000" stroke="#000000" x1="16.8" y1="10.4" x2="31.2" y2="10.4" id="svg_6"/>
  <path d="m31.52942,15.87418l1.17299,0a10.55688,11.19769 0 0 0 -21.11377,0l1.17299,0a9.3839,9.9535 0 1 1 18.76779,0l0,0zm0,0l1.17299,0a10.55688,11.19769 0 0 0 -21.11377,0l1.17299,0a9.3839,9.9535 0 1 1 18.76779,0l0,0z" fill="#000" transform="rotate(90.42517852783203 22.14552497863769,10.275335311889648) " id="svg_9"/>
 </g>
</svg>
